PS_ngait_og_ss3_kinetics.mot
version=1
nRows=10
nColumns=28
inDegrees=yes
endheader
time	1_ground_force_vx	1_ground_force_vy	1_ground_force_vz	1_ground_force_px	1_ground_force_py	1_ground_force_pz	2_ground_force_vx	2_ground_force_vy	2_ground_force_vz	2_ground_force_px	2_ground_force_py	2_ground_force_pz	3_ground_force_vx	3_ground_force_vy	3_ground_force_vz	3_ground_force_px	3_ground_force_py	3_ground_force_pz	1_ground_torque_x	1_ground_torque_y	1_ground_torque_z	2_ground_torque_x	2_ground_torque_y	2_ground_torque_z	3_ground_torque_x	3_ground_torque_y	3_ground_torque_z
  0.81250000	  0.00000000	  0.00000000	  0.00000000	  0.30000000	 -0.00600000	  0.20000000	  0.00000000	  0.00000000	  0.00000000	 -0.30000000	 -0.00600000	  0.20000000	-72.70696617	748.83092928	-43.64376354	  1.03479783	 -0.00600000	  0.34438113	  0.00000000	  0.00000000	  0.00000000	  0.00000000	  0.00000000	  0.00000000	  0.00000000	 -0.96804808	  0.00000000
  0.81333333	  0.00000000	  0.00000000	  0.00000000	  0.30000000	 -0.00600000	  0.20000000	  0.00000000	  0.00000000	  0.00000000	 -0.30000000	 -0.00600000	  0.20000000	-72.28801393	748.02295211	-43.51720139	  1.03503667	 -0.00600000	  0.34447084	  0.00000000	  0.00000000	  0.00000000	  0.00000000	  0.00000000	  0.00000000	  0.00000000	 -0.97791323	  0.00000000
  0.81416667	  0.00000000	  0.00000000	  0.00000000	  0.30000000	 -0.00600000	  0.20000000	  0.00000000	  0.00000000	  0.00000000	 -0.30000000	 -0.00600000	  0.20000000	-71.85244907	747.22041889	-43.38657088	  1.03527239	 -0.00600000	  0.34456368	  0.00000000	  0.00000000	  0.00000000	  0.00000000	  0.00000000	  0.00000000	  0.00000000	 -0.98574834	  0.00000000
  0.81500000	  0.00000000	  0.00000000	  0.00000000	  0.30000000	 -0.00600000	  0.20000000	  0.00000000	  0.00000000	  0.00000000	 -0.30000000	 -0.00600000	  0.20000000	-71.40235491	746.42212210	-43.25113331	  1.03550432	 -0.00600000	  0.34465869	  0.00000000	  0.00000000	  0.00000000	  0.00000000	  0.00000000	  0.00000000	  0.00000000	 -0.99174787	  0.00000000
  0.81583333	  0.00000000	  0.00000000	  0.00000000	  0.30000000	 -0.00600000	  0.20000000	  0.00000000	  0.00000000	  0.00000000	 -0.30000000	 -0.00600000	  0.20000000	-70.94048432	745.62868526	-43.11132366	  1.03573161	 -0.00600000	  0.34475379	  0.00000000	  0.00000000	  0.00000000	  0.00000000	  0.00000000	  0.00000000	  0.00000000	 -0.99673652	  0.00000000
  0.81666667	  0.00000000	  0.00000000	  0.00000000	  0.30000000	 -0.00600000	  0.20000000	  0.00000000	  0.00000000	  0.00000000	 -0.30000000	 -0.00600000	  0.20000000	-70.46966725	744.84105210	-42.96825591	  1.03595346	 -0.00600000	  0.34484671	  0.00000000	  0.00000000	  0.00000000	  0.00000000	  0.00000000	  0.00000000	  0.00000000	 -1.00195269	  0.00000000
  0.81750000	  0.00000000	  0.00000000	  0.00000000	  0.30000000	 -0.00600000	  0.20000000	  0.00000000	  0.00000000	  0.00000000	 -0.30000000	 -0.00600000	  0.20000000	-69.99200667	744.05895915	-42.82305410	  1.03616944	 -0.00600000	  0.34493620	  0.00000000	  0.00000000	  0.00000000	  0.00000000	  0.00000000	  0.00000000	  0.00000000	 -1.00860524	  0.00000000
  0.81833333	  0.00000000	  0.00000000	  0.00000000	  0.30000000	 -0.00600000	  0.20000000	  0.00000000	  0.00000000	  0.00000000	 -0.30000000	 -0.00600000	  0.20000000	-69.50879293	743.28126733	-42.67625644	  1.03637993	 -0.00600000	  0.34502176	  0.00000000	  0.00000000	  0.00000000	  0.00000000	  0.00000000	  0.00000000	  0.00000000	 -1.01766162	  0.00000000
  0.81916667	  0.00000000	  0.00000000	  0.00000000	  0.30000000	 -0.00600000	  0.20000000	  0.00000000	  0.00000000	  0.00000000	 -0.30000000	 -0.00600000	  0.20000000	-69.02119209	742.50677690	-42.52791527	  1.03658622	 -0.00600000	  0.34510285	  0.00000000	  0.00000000	  0.00000000	  0.00000000	  0.00000000	  0.00000000	  0.00000000	 -1.02983691	  0.00000000
  0.82000000	  0.00000000	  0.00000000	  0.00000000	  0.30000000	 -0.00600000	  0.20000000	  0.00000000	  0.00000000	  0.00000000	 -0.30000000	 -0.00600000	  0.20000000	-68.53076520	741.73365253	-42.37807827	  1.03679032	 -0.00600000	  0.34517930	  0.00000000	  0.00000000	  0.00000000	  0.00000000	  0.00000000	  0.00000000	  0.00000000	 -1.04546215	  0.00000000
